<svg width="246" height="190" viewBox="0 0 246 190" fill="none" xmlns="http://www.w3.org/2000/svg">
<path d="M4.81242 112C15.3124 153 47.3128 189.5 123.813 189.5C200.312 189.5 235.312 147 242.813 116C245.826 103.543 187.318 152.5 128.5 152.5C69.6816 152.5 -5.68758 71 4.81242 112Z" fill="black"/>
<path d="M241.871 112C231.371 153 199.371 189.5 122.871 189.5C46.3713 189.5 11.3713 147 3.87099 116C0.857209 103.543 69.6817 147 128.5 147C187.318 147 252.371 71 241.871 112Z" fill="black"/>
<path d="M212.438 0.5C215.908 0.499985 219.069 2.93527 221.732 6.02832C222.278 6.66144 222.82 7.34546 223.361 8.0752C225.052 10.2193 226.75 12.7652 228.409 15.6299C233.545 24.4965 238.502 36.7422 241.802 50.4785C244.531 61.8425 246.151 74.3567 245.743 86.9053C245.929 92.9701 245.72 98.8906 245.026 104.474C243.313 118.275 238.582 130.5 229.045 137.421C219.262 149.966 203.296 157.682 184.691 161.941C166.101 166.197 144.568 167.073 123.154 165.688C101.741 167.073 80.208 166.197 61.6172 161.941C43.0133 157.683 27.0474 149.966 17.2646 137.422C7.72747 130.501 2.99598 118.276 1.28223 104.474C0.588999 98.8906 0.380741 92.9701 0.566406 86.9053C0.158252 74.3567 1.77739 61.8425 4.50684 50.4785C7.8061 36.7422 12.764 24.4965 17.8994 15.6299C19.56 12.7628 21.2594 10.2145 22.9512 8.06934C23.491 7.34163 24.0334 6.65988 24.5771 6.02832C27.2402 2.93545 30.4012 0.500117 33.8711 0.5C33.8811 0.5 33.8914 0.500948 33.9014 0.500977C33.9134 0.50091 33.9255 0.500002 33.9375 0.5C34.0839 0.5 34.2305 0.504765 34.377 0.512695C37.1715 0.637417 39.9673 1.77965 42.6289 3.43359C45.4734 5.20118 48.3571 7.6715 51.1895 10.54C56.8551 16.278 62.5644 23.8614 67.6299 31.3496C71.5454 37.1377 75.1085 42.9198 78.0088 47.8359C80.7658 51.756 83.372 55.4501 85.751 58.71C89.3473 57.3908 93.8858 56.3912 98.8457 55.667C105.727 54.6622 113.698 54.1461 121.677 54.125C122.169 54.1237 122.662 54.1235 123.154 54.126C123.647 54.1235 124.139 54.1237 124.632 54.125C132.611 54.1461 140.581 54.6622 147.463 55.667C152.423 56.3911 156.961 57.3909 160.558 58.71C162.937 55.45 165.543 51.7553 168.3 47.835C171.2 42.9188 174.764 37.1376 178.68 31.3496C183.745 23.8615 189.454 16.278 195.12 10.54C197.952 7.67167 200.835 5.20112 203.68 3.43359C206.341 1.77988 209.137 0.637763 211.931 0.512695C212.077 0.504716 212.224 0.500005 212.371 0.5C212.383 0.5 212.395 0.500913 212.406 0.500977C212.417 0.500947 212.427 0.500002 212.438 0.5ZM123.371 80.5C113.222 80.5001 103.366 85.3135 96.0664 90.9131C92.4128 93.7158 89.3812 96.7292 87.2578 99.4629C86.1963 100.83 85.3549 102.135 84.7773 103.316C84.2039 104.489 83.8711 105.577 83.8711 106.5C83.8711 107.317 84.2151 108.293 84.7881 109.341C85.3676 110.4 86.2101 111.584 87.2715 112.833C89.3954 115.331 92.427 118.123 96.0801 120.734C103.379 125.952 113.23 130.5 123.371 130.5C133.512 130.5 143.363 125.952 150.662 120.734C154.315 118.123 157.347 115.331 159.471 112.833C160.532 111.584 161.375 110.4 161.954 109.341C162.527 108.293 162.871 107.317 162.871 106.5C162.871 105.577 162.538 104.489 161.965 103.316C161.387 102.135 160.546 100.83 159.484 99.4629C157.361 96.7292 154.329 93.7158 150.676 90.9131C143.376 85.3135 133.521 80.5 123.371 80.5Z" fill="black"/>
</svg>
